. 
  
http://www.torrenting.com/        :     Greatest Movie Tracker on The Net!!!
 
http://www.Torrenting.com          :     Once & For all ;)


               www . Torrenting . Com 

(((((((((((((= Enjoy No RAR releases =))))))))))))))))))))


...................................NFO:....................................

.                                                                                                     
       
     
     
       
       
     
     
                                         
                                         
                EXVID                    
                                         
         
                                         
         Filled the Archives             
                                         
         
                                         
                With:                    
                                         
         
                                         
                                    
     E240                           
                                    
     SP               (C) 2009      
                                         
     
     
     
                                                                                  
                                                                                   
                 The.Last.Sunset.1961.DVDRip.XviD-EXViD                             
                                                                                   
                                                                                  
     
                                                                                               
EXViD aims to iNTERNAL those releases which have been lost in the archives.
EXViD aims to PRE non-internal releases which have poor sources and are likely skipped by others.
 
http://www.imdb.com/title/tt0055073/
Subtitles: English
Date: 2011.08

Director: Robert Aldrich

Genres: Western

Plot:
Brendan O'Malley arrives at the Mexican home of old flame Belle Breckenridge to find her married
to a drunkard getting ready for a cattle drive to Texas. Hot on O'Malley's heels is lawman Dana
Stribling who has a personal reason for getting him back into his jurisdiction. Both men join
Breckenridge and his wife on the drive. As they near Texas tensions mount, not least because
Stribling is starting to court Belle and O'Malley is increasingly drawn by her daughter Missy.

Cast:
Rock Hudson 	 ... 	Dana Stribling
Kirk Douglas 	 ... 	Brendan 'Bren' O'Malley
Dorothy Malone 	 ... 	Belle Breckenridge
Joseph Cotten 	 ... 	John Breckenridge
Carol Lynley 	 ... 	Melissa 'Missy' Breckenridge
Neville Brand 	 ... 	Frank Hobbs
Regis Toomey 	 ... 	Milton Wing
James Westmoreland 	 ... 	Julesburg Kid (as Rad Fulton)
Adam Williams 	 ... 	Calverton
Jack Elam 	 ... 	Ed Hobbs
John Shay 	 ... 	Bowman

Stats:
Format                           : AVI
Format/Info                      : Audio Video Interleave
File size                        : 1.37 GiB
Duration                         : 1h 47mn
Overall bit rate                 : 1 823 Kbps
Writing application              : Nandub v1.0rc2
Writing library                  : Nandub build 1852/release

Video
ID                               : 0
Format                           : MPEG-4 Visual
Format profile                   : Advanced Simple@L5
Format settings, BVOP            : 2
Format settings, QPel            : No
Format settings, GMC             : No warppoints
Format settings, Matrix          : Default (H.263)
Codec ID                         : XVID
Codec ID/Hint                    : XviD
Duration                         : 1h 47mn
Bit rate                         : 1 737 Kbps
Width                            : 624 pixels
Height                           : 336 pixels
Display aspect ratio             : 1.857
Frame rate                       : 25.000 fps
Color space                      : YUV
Chroma subsampling               : 4:2:0
Bit depth                        : 8 bits
Scan type                        : Progressive
Compression mode                 : Lossy
Bits/(Pixel*Frame)               : 0.331
Stream size                      : 1.30 GiB (95%)
Writing library                  : XviD 64

Audio
ID                               : 1
Format                           : MPEG Audio
Format version                   : Version 1
Format profile                   : Layer 3
Codec ID                         : 55
Codec ID/Hint                    : MP3
Duration                         : 1h 47mn
Bit rate mode                    : Variable
Bit rate                         : 73.2 Kbps
Nominal bit rate                 : 80.0 Kbps
Channel(s)                       : 1 channel
Sampling rate                    : 48.0 KHz
Compression mode                 : Lossy
Stream size                      : 56.3 MiB (4%)
Alignment                        : Aligned on interleaves
Interleave, duration             : 24 ms (0.60 video frame)
Interleave, preload duration     : 532 ms
Writing library                  : LAME3.98r
Encoding settings                : -m m -V 4 -q 3 -lowpass 20.3 --abr 80




Release notes:
enjoy!

Looking for:
75TB+ Archives
DUTCH/FLEMiSH Archives
                                                                                                    
Greets: CRBS EPiSODE FiCO FLS iLS KLASSiGER LiPSYNC MADE NODLABS RUNNER SPRiNTER      
   

                                                                    ASCII DONE BY XX^NFO 2oo9